<svg width="350" height="215" viewBox="0 0 350 215" fill="none" xmlns="http://www.w3.org/2000/svg">
<mask id="mask0" mask-type="alpha" maskUnits="userSpaceOnUse" x="21" y="0" width="308" height="132">
<path fill-rule="evenodd" clip-rule="evenodd" d="M21.1377 0.682495H328.323V131.298H21.1377V0.682495Z" fill="white"/>
</mask>
<g mask="url(#mask0)">
<path fill-rule="evenodd" clip-rule="evenodd" d="M328.323 31.714V124.225C328.323 128.133 325.15 131.298 321.242 131.298H28.219C24.3101 131.298 21.1377 128.13 21.1377 124.225V31.714C21.1377 14.5762 35.0308 0.682373 52.1687 0.682373H297.288C314.43 0.682373 328.323 14.5762 328.323 31.714Z" fill="#EAA14E"/>
</g>
<path fill-rule="evenodd" clip-rule="evenodd" d="M328.318 31.7167V51.926C328.318 34.7882 314.432 20.8951 297.286 20.8951H52.1742C35.0309 20.8951 21.1426 34.7882 21.1426 51.926V31.7167C21.1426 14.5816 35.0309 0.685059 52.1742 0.685059H297.286C314.429 0.685059 328.318 14.5816 328.318 31.7167Z" fill="#E78B22"/>
<path fill-rule="evenodd" clip-rule="evenodd" d="M57.9812 133.09C55.062 133.09 52.1345 132.058 49.788 129.959C44.7194 125.432 44.2799 117.655 48.8072 112.587L91.1963 65.1318C100.096 55.1708 115.173 53.9791 125.526 62.4201L167.523 96.6645C172.789 100.957 173.578 108.71 169.283 113.976C164.988 119.242 157.237 120.031 151.972 115.735L109.974 81.4943C109.846 81.3899 109.66 81.4036 109.55 81.5264L67.1607 128.981C64.7322 131.701 61.3618 133.09 57.9812 133.09Z" fill="#336686"/>
<path fill-rule="evenodd" clip-rule="evenodd" d="M26.3685 128.757H174.863V101.49H26.3685C18.8394 101.49 12.7334 107.596 12.7334 115.125C12.7334 122.654 18.8394 128.757 26.3685 128.757Z" fill="#4C78A0"/>
<path fill-rule="evenodd" clip-rule="evenodd" d="M229.848 75.7885L164.566 81.0038C160.471 81.3314 157.528 85.0827 158.184 89.1383L164.94 130.802L277.015 130.789V119.337C277.017 93.8383 255.267 73.7566 229.848 75.7885Z" fill="#FF5555"/>
<path fill-rule="evenodd" clip-rule="evenodd" d="M300.816 123.894H277.212C269.513 123.894 263.271 117.652 263.271 109.952C263.271 102.253 269.513 96.0115 277.212 96.0115H300.816C308.516 96.0115 314.758 102.253 314.758 109.952C314.758 117.652 308.516 123.894 300.816 123.894Z" fill="#0B2E40"/>
<path fill-rule="evenodd" clip-rule="evenodd" d="M37.2837 192.145C30.9463 192.145 25.8088 187.008 25.8088 180.67V161.357H48.7586V180.67C48.7586 187.008 43.6211 192.145 37.2837 192.145Z" fill="#FFA638"/>
<path fill-rule="evenodd" clip-rule="evenodd" d="M312.177 192.145C305.839 192.145 300.702 187.008 300.702 180.67V161.357H323.651V180.67C323.651 187.008 318.514 192.145 312.177 192.145Z" fill="#FFA638"/>
<mask id="mask1" mask-type="alpha" maskUnits="userSpaceOnUse" x="0" y="122" width="350" height="45">
<path fill-rule="evenodd" clip-rule="evenodd" d="M0 122.676H349.46V166.665H0V122.676Z" fill="white"/>
</mask>
<g mask="url(#mask1)">
<path fill-rule="evenodd" clip-rule="evenodd" d="M332.144 166.665H17.3167C7.75297 166.665 0 158.912 0 149.348V139.992C0 130.429 7.75297 122.676 17.3167 122.676H332.144C341.707 122.676 349.46 130.429 349.46 139.992V149.348C349.46 158.912 341.707 166.665 332.144 166.665Z" fill="#F6B863"/>
</g>
<path fill-rule="evenodd" clip-rule="evenodd" d="M255.534 110.864L251.26 122.678H240.038L245.613 107.279C246.605 104.538 249.628 103.117 252.369 104.114C255.104 105.106 256.517 108.129 255.534 110.864Z" fill="#F72B2B"/>
<path fill-rule="evenodd" clip-rule="evenodd" d="M224.209 103.687L217.333 122.678H206.111L214.288 100.093C215.28 97.3582 218.304 95.9371 221.044 96.9364C223.78 97.9281 225.201 100.952 224.209 103.687Z" fill="#F72B2B"/>
<path fill-rule="evenodd" clip-rule="evenodd" d="M202.738 194.507C197.262 192.524 194.43 186.477 196.411 181.001L225.051 101.893C227.033 96.4142 233.077 93.5796 238.558 95.5637C244.035 97.5472 246.866 103.594 244.885 109.07L216.245 188.18C214.264 193.657 208.217 196.488 202.738 194.507Z" fill="#FF5555"/>
<mask id="mask2" mask-type="alpha" maskUnits="userSpaceOnUse" x="184" y="185" width="29" height="30">
<path fill-rule="evenodd" clip-rule="evenodd" d="M184.378 185.737H212.436V214.565H184.378V185.737Z" fill="white"/>
</mask>
<g mask="url(#mask2)">
<path fill-rule="evenodd" clip-rule="evenodd" d="M211.001 201.805L205.61 211.149C204.269 213.475 201.687 214.797 199.019 214.531L190.535 213.685C185.603 213.192 182.822 207.772 185.299 203.479L192.442 191.1C195.399 185.973 201.949 184.216 207.076 187.173C212.201 190.127 213.957 196.68 211.001 201.805Z" fill="#FECAA8"/>
</g>
<path fill-rule="evenodd" clip-rule="evenodd" d="M179.212 78.3347L179.009 76.6659C178.708 74.202 180.46 71.9626 182.923 71.6616L206.66 68.7635C209.121 68.4618 211.363 70.2159 211.662 72.6799L211.867 74.3487C212.686 81.0594 207.911 87.1654 201.2 87.9838L192.847 89.0049C186.136 89.8233 180.033 85.0455 179.212 78.3347Z" fill="#FECAA8"/>
<path fill-rule="evenodd" clip-rule="evenodd" d="M299.848 90.7404C298.571 92.0174 297.198 93.1559 295.761 94.1476C295.273 94.4834 294.772 94.8063 294.273 95.1073C283.076 101.847 268.321 100.389 258.667 90.7349C247.295 79.3638 247.301 60.9243 258.667 49.5587C259.613 48.6093 260.605 47.7431 261.647 46.9541C262.143 46.5726 262.653 46.2156 263.167 45.8716C265.025 44.6287 267.009 43.6295 269.051 42.8636C279.407 38.995 291.525 41.2296 299.848 49.5532C310.995 60.7005 311.214 78.639 300.504 90.0551C300.296 90.2845 300.078 90.5111 299.848 90.7404Z" fill="#FECAA8"/>
<path fill-rule="evenodd" clip-rule="evenodd" d="M300.507 90.0552C267.515 70.2001 269.048 42.8665 269.048 42.8665C279.407 38.9951 291.524 41.2297 299.848 49.5533C310.995 60.7006 311.216 78.6411 300.507 90.0552Z" fill="#0B2E40"/>
</svg>
