<svg width="291" height="250" viewBox="0 0 291 250" fill="none" xmlns="http://www.w3.org/2000/svg">
<path fill-rule="evenodd" clip-rule="evenodd" d="M34.9022 15.7163H138.495C139.866 15.7163 140.978 16.8282 140.978 18.1993V91.2459H32.426V18.1924C32.43 16.8265 33.5363 15.7203 34.9022 15.7163Z" fill="#575B6D"/>
<mask id="mask0" mask-type="alpha" maskUnits="userSpaceOnUse" x="0" y="0" width="291" height="250">
<path fill-rule="evenodd" clip-rule="evenodd" d="M0 249.565H290.909V0H0V249.565Z" fill="white"/>
</mask>
<g mask="url(#mask0)">
<path fill-rule="evenodd" clip-rule="evenodd" d="M38.6165 78.8648H134.776V21.9103H38.6165V78.8648Z" fill="#69B0EE"/>
<path fill-rule="evenodd" clip-rule="evenodd" d="M148.399 86.7196V89.4014C148.415 91.8378 147.531 94.1941 145.916 96.0179C144.403 97.7389 142.23 98.7344 139.938 98.7571H33.4191C31.143 98.7344 28.9845 97.7435 27.4833 96.0321L27.4367 95.9821C25.8413 94.173 24.9686 91.8389 24.9856 89.4264V86.7191C24.9453 85.8458 25.6169 85.1026 26.4902 85.0554H74.6288C74.9885 85.0742 75.2657 85.3799 75.2492 85.7395C75.1106 88.6236 77.3328 91.0759 80.2163 91.2208H93.2186C96.1021 91.0759 98.3237 88.623 98.1856 85.7395C98.1691 85.3799 98.4464 85.0742 98.8061 85.0554H146.891C147.766 85.1014 148.44 85.8441 148.399 86.7196Z" fill="#414451"/>
<path fill-rule="evenodd" clip-rule="evenodd" d="M106.519 21.9033L86.7657 78.8647H84.147L103.9 21.9033H106.519Z" fill="#EEEFEE"/>
<path fill-rule="evenodd" clip-rule="evenodd" d="M96.0175 21.9033L76.2641 78.8647H66.8704L86.6238 21.9033H96.0175Z" fill="#EEEFEE"/>
<path fill-rule="evenodd" clip-rule="evenodd" d="M12.1228 249.565H26.4268V107.26H12.1228V249.565Z" fill="#F6B863"/>
<path fill-rule="evenodd" clip-rule="evenodd" d="M162.668 237.201L165.477 249.565H182.645L185.455 237.201H162.668Z" fill="#F6B863"/>
<path fill-rule="evenodd" clip-rule="evenodd" d="M248.969 237.201L251.778 249.565H268.949L271.759 237.201H248.969Z" fill="#F6B863"/>
<path fill-rule="evenodd" clip-rule="evenodd" d="M155.636 241.324H278.787V116.474H155.636V241.324Z" fill="#F6B863"/>
<path fill-rule="evenodd" clip-rule="evenodd" d="M0 117.928H290.909V98.6573H0V117.928Z" fill="#F6B863"/>
<path fill-rule="evenodd" clip-rule="evenodd" d="M167.167 171.043H267.26V133.006H167.167V171.043Z" fill="#EAA14E"/>
<path fill-rule="evenodd" clip-rule="evenodd" d="M231.84 157.041H202.572C200.01 157.039 197.932 154.963 197.928 152.401V146.917H202.292V152.681H231.841L232.118 146.917H236.482V152.401C236.477 154.963 234.402 157.038 231.84 157.041Z" fill="#575B6D"/>
<path fill-rule="evenodd" clip-rule="evenodd" d="M167.167 224.791H267.26V186.753H167.167V224.791Z" fill="#EAA14E"/>
<path fill-rule="evenodd" clip-rule="evenodd" d="M231.84 210.789H202.572C200.01 210.787 197.932 208.711 197.928 206.149V200.661H202.292V206.425H231.841L232.118 200.661H236.482V206.145C236.478 208.707 234.403 210.785 231.84 210.789Z" fill="#575B6D"/>
<path fill-rule="evenodd" clip-rule="evenodd" d="M22.5312 218.948H162.558V208.281H22.5312V218.948Z" fill="#F6B863"/>
<path fill-rule="evenodd" clip-rule="evenodd" d="M194.146 98.7568H169.224C169.228 91.8693 174.814 86.2903 181.702 86.2943C188.583 86.2989 194.159 91.8761 194.164 98.7568H194.146Z" fill="#575B6D"/>
<path fill-rule="evenodd" clip-rule="evenodd" d="M217.98 26.4729C220.699 26.4729 222.904 28.6774 222.904 31.3973C222.904 34.1167 220.699 36.3212 217.98 36.3212C215.261 36.3212 213.055 34.1167 213.055 31.3973C213.055 28.6774 215.261 26.4729 217.98 26.4729Z" fill="#F6C863"/>
<path fill-rule="evenodd" clip-rule="evenodd" d="M246.24 94.5171H242.285V70.0625L270.01 37.8858L239.678 10.5085L242.083 7.36877L275.47 37.8858L246.24 71.2972V94.5171Z" fill="#DBD8DD"/>
<path fill-rule="evenodd" clip-rule="evenodd" d="M237.031 89.3979V91.8354H233.153V89.3979C233.153 88.3263 234.022 87.457 235.094 87.457C236.164 87.4593 237.031 88.3275 237.031 89.3979Z" fill="#EF5261"/>
<path fill-rule="evenodd" clip-rule="evenodd" d="M272.341 31.9327C275.629 31.9327 278.295 34.5981 278.295 37.8861C278.295 41.1736 275.629 43.839 272.341 43.839C269.054 43.839 266.388 41.1736 266.388 37.8861C266.388 34.5981 269.054 31.9327 272.341 31.9327Z" fill="#575B6D"/>
<path fill-rule="evenodd" clip-rule="evenodd" d="M272.341 34.7567C274.069 34.7567 275.47 36.1579 275.47 37.8857C275.47 39.6141 274.069 41.0152 272.341 41.0152C270.613 41.0152 269.212 39.6141 269.212 37.8857C269.212 36.1579 270.613 34.7567 272.341 34.7567Z" fill="#9A9EAF"/>
<path fill-rule="evenodd" clip-rule="evenodd" d="M244.009 64.7275C247.297 64.7275 249.962 67.3929 249.962 70.6804C249.962 73.9684 247.297 76.6338 244.009 76.6338C240.721 76.6338 238.056 73.9684 238.056 70.6804C238.056 67.3929 240.721 64.7275 244.009 64.7275Z" fill="#575B6D"/>
<path fill-rule="evenodd" clip-rule="evenodd" d="M244.009 67.5515C245.737 67.5515 247.138 68.9521 247.138 70.6805C247.138 72.4083 245.737 73.8095 244.009 73.8095C242.281 73.8095 240.88 72.4083 240.88 70.6805C240.88 68.9521 242.281 67.5515 244.009 67.5515Z" fill="#9A9EAF"/>
<path fill-rule="evenodd" clip-rule="evenodd" d="M230.808 7.07431L235.545 2.03965C238.01 -0.57228 242.125 -0.69103 244.737 1.77317C244.811 1.84249 244.883 1.91408 244.953 1.98624L246.068 3.14249C248.558 5.72261 248.49 9.8317 245.915 12.3277L240.221 17.8624L230.808 7.07431Z" fill="#575B6D"/>
<path fill-rule="evenodd" clip-rule="evenodd" d="M211.796 19.686L221.315 9.13548C224.991 5.06275 231.271 4.74059 235.344 8.41673C235.386 8.45309 235.427 8.49059 235.467 8.52866L239.784 12.5622C243.659 16.1889 244 22.2201 240.558 26.2599L230.625 37.8997L211.796 19.686Z" fill="#DBD8DD"/>
<path fill-rule="evenodd" clip-rule="evenodd" d="M208.582 18.9872C207.585 20.2276 207.722 22.0293 208.897 23.1026L227.735 40.3054C228.785 41.2617 230.389 41.2617 231.439 40.3054C232.565 39.2861 232.651 37.5475 231.632 36.4219C231.586 36.3713 231.539 36.3225 231.489 36.2747L213.009 18.6855C211.8 17.5395 209.892 17.5901 208.746 18.7986C208.688 18.8588 208.634 18.9225 208.582 18.9872Z" fill="#575B6D"/>
<path fill-rule="evenodd" clip-rule="evenodd" d="M259.8 93.9995V98.6574H228.47V93.9995C228.47 92.0046 230.084 90.3853 232.079 90.3773H256.178C258.178 90.3773 259.8 91.9983 259.8 93.9995Z" fill="#575B6D"/>
<path fill-rule="evenodd" clip-rule="evenodd" d="M12.1228 124.563H26.42V117.928H12.1228V124.563Z" fill="#EAA14E"/>
<path fill-rule="evenodd" clip-rule="evenodd" d="M155.636 124.563H278.787V117.928H155.636V124.563Z" fill="#EAA14E"/>
</g>
</svg>
