<svg width="860" height="752" viewBox="0 0 860 752" fill="none" xmlns="http://www.w3.org/2000/svg">
<defs>
<linearGradient id="paint0_linear" x1="431.4" y1="716.44" x2="431.4" y2="0.0500488" gradientUnits="userSpaceOnUse">
<stop stop-color="#808080" stop-opacity="0.25"/>
<stop offset="0.54" stop-color="#808080" stop-opacity="0.12"/>
<stop offset="1" stop-color="#808080" stop-opacity="0.1"/>
</linearGradient>
<linearGradient id="paint1_linear" x1="55697.7" y1="49540.1" x2="81451.5" y2="49540.1" gradientUnits="userSpaceOnUse">
<stop stop-color="#808080" stop-opacity="0.25"/>
<stop offset="0.54" stop-color="#808080" stop-opacity="0.12"/>
<stop offset="1" stop-color="#808080" stop-opacity="0.1"/>
</linearGradient>
<linearGradient id="paint2_linear" x1="109275" y1="364563" x2="109275" y2="172403" gradientUnits="userSpaceOnUse">
<stop stop-color="#808080" stop-opacity="0.25"/>
<stop offset="0.54" stop-color="#808080" stop-opacity="0.12"/>
<stop offset="1" stop-color="#808080" stop-opacity="0.1"/>
</linearGradient>
<clipPath id="clip0">
<rect width="859.4" height="751.86" fill="white"/>
</clipPath>
</defs>
<g clip-path="url(#clip0)">
<g opacity="0.5">
<path opacity="0.5" d="M431.4 0.0500488L153.4 171.13C153.4 171.13 153.4 524 431.4 716.44C709.4 524 709.4 171.13 709.4 171.13L431.4 0.0500488Z" fill="url(#paint0_linear)"/>
</g>
<path d="M431.4 10.75L161.7 176.75C161.7 176.75 161.7 519.06 431.4 705.75C701.1 519.03 701.1 176.75 701.1 176.75L431.4 10.75Z" fill="#40BFFF"/>
<path opacity="0.04" d="M433.01 10.75L428.4 13.58V702.51C429.93 703.59 431.46 704.68 433.01 705.75C702.71 519.03 702.71 176.75 702.71 176.75L433.01 10.75Z" fill="#FF146C"/>
<g opacity="0.7">
<path opacity="0.7" d="M366.11 347.07L416.95 393.67L479.98 302.75L505.4 323.94L416.95 436.04L344.92 355.54L366.11 347.07Z" fill="url(#paint1_linear)"/>
</g>
<path d="M378.11 349.87L419.35 387.67L477.78 301.75L498.4 318.94L419.35 422.04L360.92 356.74L378.11 349.87Z" fill="white"/>
<g opacity="0.5">
<path opacity="0.5" d="M383.86 376C382.05 376.222 380.326 376.898 378.847 377.965C377.368 379.031 376.183 380.453 375.4 382.1C371.93 389.29 365.05 401.89 358.73 403.87C354.62 405.15 348.63 404.07 343.35 402.53L341.2 401.87V399.14C341.2 399.14 310.31 382 292.67 378V365.44C295.421 363.695 297.768 361.381 299.551 358.655C301.335 355.928 302.515 352.852 303.013 349.632C303.51 346.412 303.313 343.123 302.434 339.985C301.556 336.847 300.017 333.934 297.92 331.44C302.65 329.7 305.77 326.69 305.77 323.26C305.77 317.87 298.03 313.5 288.49 313.5C280.19 313.5 273.26 316.8 271.59 321.21C266.902 322.158 262.617 324.518 259.311 327.974C256.004 331.429 253.835 335.814 253.094 340.539C252.354 345.264 253.078 350.103 255.169 354.404C257.259 358.705 260.617 362.263 264.79 364.6V377.1C255.31 377.01 228.14 380.99 216.28 427.52C216.28 427.52 217.96 428.96 220.56 430.98L220.21 431.89L188.68 513.11C188.68 513.11 163.59 519.8 176.41 532.11C176.41 532.11 176.41 531.92 176.35 531.6L182.65 546.1L183.77 548.5L191.2 564.36L190.46 567.97L180.94 614.69H167.83V622.1H179.4L153 751.86H161.34L186.78 622.1H218.26L235.19 658.25H227.19V666.59H239.19L250.05 690C248.73 691.33 248.59 693.37 253.05 696.32L256.51 703.7H246.65V709.26H259.12L279.12 751.9H295.8L275.63 709.26H284.63V706.45C293.78 707.78 301.33 707.78 302.72 706.39C305.51 703.6 304.95 691.89 301.05 686.32C300.636 685.709 300.13 685.166 299.55 684.71C300.01 673.01 301.67 649.71 307.74 635.59C316.1 616.08 303.28 594.33 303.28 594.33L302.88 586.24V583C307.48 582.12 310.53 581.47 310.53 581.47C310.53 581.47 302.17 554.15 310.53 540.21C316.34 530.53 316.76 516.28 313.31 503.61V503.52C313.137 502.893 312.957 502.273 312.77 501.66V501.56C314.618 499.915 316.314 498.108 317.84 496.16C317.84 496.16 306.13 441.52 317.84 424.23L341.26 425.9V422.83H362.17L380.57 397.18C380.57 397.18 393.39 393.83 397.3 382.68C399.78 375.33 390.5 375.25 383.86 376ZM228.27 472.45C228.27 472.45 235.88 459.06 239.63 445.32V445.27C239.817 444.603 239.993 443.91 240.16 443.19C240.76 443.41 241.34 443.61 241.91 443.76C241.91 443.76 247.49 493.94 238.56 496.17C238.56 496.17 240.35 497.33 243.44 499.01L240.16 500.32L221.28 507.87L222.49 511.87C221.81 512 221.05 512.15 220.24 512.32C214.85 513.47 206.86 515.71 200.46 519.72C200.46 519.72 207.64 495.31 228.27 472.45ZM193.33 526C192.711 526.836 192.168 527.726 191.71 528.66L189.71 523.37C190.46 523.46 191.23 523.58 192.06 523.73C192.03 523.74 192.58 524.67 193.33 526ZM195.51 577.6L196.08 574.71L209.02 602.33C203.714 603.427 198.294 603.876 192.88 603.67C191.837 604.165 190.873 604.812 190.02 605.59L195.51 577.59V577.6ZM188.24 614.67L189.24 609.38C190.24 610.72 192.67 612.13 197.8 613.45C199.867 613.968 201.96 614.376 204.07 614.67H188.24V614.67ZM255.4 666.59H265.14V658.25H251.46L234.4 622.1H242.02V614.69H232.94C239.01 613.9 243.42 612.69 244.22 611.43C246.29 608.21 243.51 597.43 238.78 592.6C235.64 579.33 228.17 550.6 221.34 546.33L231.12 544.51H231.22L232.48 544.28L235.84 555.28C243.708 554.756 251.532 553.707 259.26 552.14V552.26C252.771 553.525 246.218 554.44 239.63 555L239.7 555.24C246.216 554.81 252.703 554.016 259.13 552.86C257.72 565.33 256.51 586.79 264.79 587.58C266.307 587.704 267.83 587.734 269.35 587.67V587.67V590.48H269.53C270.13 598.08 271.75 608.22 275.94 616.6L281.32 689.26C276.396 690.031 271.402 690.252 266.43 689.92L255.43 666.61L255.4 666.59Z" fill="url(#paint2_linear)"/>
</g>
<path d="M228 511.94C228 511.94 181.7 517.32 195.7 545.32C204.583 563.532 211.706 582.552 216.97 602.12L241.47 597.01C241.47 597.01 231.78 551.25 223.16 545.86L246.31 541.55L228 511.94Z" fill="#FDA57D"/>
<path opacity="0.05" d="M223.16 545.86L246.31 541.55L228 511.94C228 511.94 227.46 512 226.51 512.15L244.69 541.55L221.54 545.86C230.15 551.24 239.85 597.01 239.85 597.01L216.85 601.8L216.93 602.12L241.43 597.01C241.43 597.01 231.77 551.24 223.16 545.86Z" fill="black"/>
<path d="M231.68 591.82C231.68 591.82 217.37 602.08 195.68 601.26C195.68 601.26 184.15 606.51 200.47 610.69C216.79 614.87 243.15 611.92 245.21 608.69C247.27 605.46 244.35 594.55 239.53 590.09C234.71 585.63 231.68 591.82 231.68 591.82Z" fill="#FF146C"/>
<path d="M269.46 577.62C269.46 577.62 268.38 598.62 275.92 613.69L281.3 686.37H298.53C298.53 686.37 298.53 650.84 306.61 631.99C314.69 613.14 302.3 592.15 302.3 592.15L301.22 570.61L269.46 577.62Z" fill="#FDA57D"/>
<path d="M260.84 543.7C260.84 543.7 253.84 584.62 265.15 585.7C276.46 586.78 309.3 579.78 309.3 579.78C309.3 579.78 301.22 553.4 309.3 539.94C317.38 526.48 314.68 503.87 305.53 489.87C296.38 475.87 286.15 489.87 286.15 489.87L260.84 543.7Z" fill="#47E6B1"/>
<path d="M280.23 374.64C292.419 374.64 302.3 364.759 302.3 352.57C302.3 340.381 292.419 330.5 280.23 330.5C268.041 330.5 258.16 340.381 258.16 352.57C258.16 364.759 268.041 374.64 280.23 374.64Z" fill="#FDA57D"/>
<path d="M292.07 363.88H265.15V388.11H292.07V363.88Z" fill="#FDA57D"/>
<path d="M292.07 681C292.07 681 275.92 688 254.92 682.62C254.92 682.62 242.54 685.31 257.61 692.85C272.68 700.39 299.07 703.08 301.76 700.39C304.45 697.7 303.91 686.39 300.14 681.01C296.37 675.63 292.07 681 292.07 681Z" fill="#FF146C"/>
<path d="M223.4 432L191.63 513.84C191.63 513.84 167.4 520.3 179.79 532.15C179.79 532.15 177.64 520.84 194.86 524.07C194.86 524.07 199.71 532.15 199.71 534.84C199.71 537.53 205.25 525.84 203.02 520.12C208.782 503.263 217.914 487.755 229.86 474.54C229.86 474.54 243.32 450.85 242.78 434.7L223.4 432Z" fill="#FDA57D"/>
<path d="M330.03 402.91C330.03 402.91 347.26 410.99 355.87 408.29C361.97 406.38 368.61 394.21 371.97 387.29C372.73 385.709 373.876 384.344 375.302 383.322C376.728 382.3 378.388 381.652 380.13 381.44C386.54 380.67 395.51 380.75 393.02 387.85C389.25 398.62 376.87 401.85 376.87 401.85L359.1 426.6H327.87L330.03 402.91Z" fill="#FDA57D"/>
<path d="M276.19 373.3C288.677 373.3 298.8 363.177 298.8 350.69C298.8 338.203 288.677 328.08 276.19 328.08C263.703 328.08 253.58 338.203 253.58 350.69C253.58 363.177 263.703 373.3 276.19 373.3Z" fill="#3D213C"/>
<path d="M288.03 339.92C297.247 339.92 304.72 335.703 304.72 330.5C304.72 325.298 297.247 321.08 288.03 321.08C278.812 321.08 271.34 325.298 271.34 330.5C271.34 335.703 278.812 339.92 288.03 339.92Z" fill="#3D213C"/>
<path opacity="0.05" d="M269.55 585.78V588.49L301.91 584.35V581.26L269.55 585.78Z" fill="black"/>
<path d="M258.15 494.71L223.15 508.71L237.15 554.47C237.15 554.47 279.15 552.32 294.76 536.16C310.37 520 268.92 487.7 268.92 487.7L258.15 494.71Z" fill="#47E6B1"/>
<path opacity="0.05" d="M298.81 527C298.897 528.69 298.629 530.38 298.025 531.961C297.42 533.542 296.492 534.979 295.3 536.18C282.3 549.65 250.9 553.39 240.85 554.25L240.92 554.48C240.92 554.48 282.92 552.33 298.53 536.17C299.667 535.028 300.564 533.67 301.169 532.175C301.773 530.681 302.073 529.082 302.05 527.47" fill="black"/>
<path d="M268.4 382.72C268.4 382.72 232.33 376.26 218.33 431.18C218.33 431.18 233.4 444.1 243.1 446.79C243.1 446.79 248.48 495.25 239.87 497.4C239.87 497.4 290.48 530.24 316.32 497.4C316.32 497.4 305.01 444.64 316.32 427.95L338.93 429.57V403.72C338.93 403.72 305.01 384.88 288.86 382.72H268.4Z" fill="#FF146C"/>
<path opacity="0.05" d="M224.32 512.52L222.15 512.96L232.6 544.1L233.91 543.86L224.32 512.52Z" fill="black"/>
<path opacity="0.05" d="M338.91 406.36L341.05 407.01L341.74 426.6H338.91V406.36Z" fill="black"/>
<path opacity="0.05" d="M222.44 434.52L221.73 436.37L240.85 448.33L241.39 446.24L222.44 434.52Z" fill="black"/>
<path opacity="0.05" d="M244.56 500.15L241.4 501.41C241.4 501.41 294.49 527.13 311.99 504.59L311.41 502.59C311.41 502.59 295.31 524.16 244.56 500.15Z" fill="black"/>
<path d="M243.12 611.87H171.52V619.03H243.12V611.87Z" fill="#B0BEC5"/>
<path d="M176.89 525.05L185.84 545.64H201.06L192.11 522.37L176.89 525.05Z" fill="#B0BEC5"/>
<path d="M278.92 744.32H295.03L199.74 542.63L185.23 543.75L278.92 744.32Z" fill="#B0BEC5"/>
<path d="M157.2 744.32H165.26L201.06 561.75L195.69 555.48L157.2 744.32Z" fill="#B0BEC5"/>
<path d="M186.93 547.95L185.84 545.64H201.06L201.6 546.79L186.93 547.95Z" fill="#ECEFF1"/>
<path opacity="0.1" d="M186.93 547.95L185.84 545.64H201.06L201.6 546.79L186.93 547.95Z" fill="black"/>
<path opacity="0.1" d="M194.1 563.26L198.8 573.28L198.25 576.07L193.39 566.75L194.1 563.26Z" fill="black"/>
<path opacity="0.1" d="M191.23 611.87L189.83 619.02H192.26L193.39 611.87H191.23Z" fill="black"/>
<path d="M265.49 653.93H228.8V661.98H265.49V653.93Z" fill="#B0BEC5"/>
<path d="M284.29 697.78H247.6V703.15H284.29V697.78Z" fill="#B0BEC5"/>
<path opacity="0.1" d="M252.28 653.93L256.09 661.99H258.11L255.2 653.93H252.28Z" fill="black"/>
<path opacity="0.1" d="M273.02 697.78L275.56 703.15H277.8L275.41 697.78H273.02Z" fill="black"/>
<path opacity="0.1" d="M232.38 611.87L235.77 619.02H237.6L234.02 611.87H232.38Z" fill="black"/>
<path opacity="0.5" d="M165.29 48C164.472 47.6323 163.816 46.9776 163.448 46.1594C163.079 45.3413 163.023 44.4166 163.29 43.5599C163.333 43.4269 163.36 43.2893 163.37 43.15C163.396 42.7542 163.293 42.3608 163.076 42.0284C162.86 41.6959 162.542 41.4422 162.17 41.3051C161.798 41.1679 161.392 41.1547 161.012 41.2673C160.631 41.3799 160.298 41.6123 160.06 41.93C159.98 42.0418 159.913 42.1626 159.86 42.29C159.493 43.1085 158.838 43.7639 158.02 44.1324C157.202 44.5009 156.277 44.557 155.42 44.29C155.287 44.2472 155.15 44.2203 155.01 44.2099C154.614 44.1844 154.221 44.2874 153.889 44.5037C153.556 44.7199 153.302 45.0377 153.165 45.4098C153.028 45.7819 153.015 46.1883 153.127 46.5686C153.24 46.9488 153.473 47.2825 153.79 47.5199V47.5199C153.902 47.6004 154.023 47.6675 154.15 47.72C154.969 48.0876 155.624 48.7423 155.993 49.5605C156.361 50.3786 156.417 51.3033 156.15 52.16C156.107 52.293 156.081 52.4306 156.07 52.57V52.57C156.035 52.9719 156.133 53.3743 156.349 53.7151C156.565 54.0559 156.887 54.3163 157.266 54.4561C157.644 54.5959 158.058 54.6074 158.444 54.4888C158.83 54.3703 159.166 54.1282 159.4 53.8V53.8C159.481 53.6881 159.548 53.5673 159.6 53.44C159.968 52.6215 160.623 51.966 161.441 51.5975C162.259 51.229 163.184 51.1729 164.04 51.44C164.173 51.4827 164.311 51.5096 164.45 51.52V51.52C164.846 51.5455 165.239 51.4424 165.572 51.2262C165.904 51.01 166.158 50.6922 166.295 50.3201C166.432 49.948 166.445 49.5416 166.333 49.1613C166.22 48.7811 165.988 48.4474 165.67 48.2099V48.2099C165.553 48.1246 165.425 48.0541 165.29 48V48Z" fill="#4D8AF0"/>
<path opacity="0.5" d="M19.2902 373C18.4717 372.632 17.8162 371.978 17.4477 371.16C17.0792 370.341 17.0232 369.417 17.2902 368.56C17.3329 368.427 17.3598 368.289 17.3702 368.15C17.3957 367.754 17.2927 367.361 17.0765 367.028C16.8603 366.696 16.5424 366.442 16.1703 366.305C15.7982 366.168 15.3918 366.155 15.0115 366.267C14.6313 366.38 14.2976 366.612 14.0602 366.93V366.93C13.9797 367.042 13.9126 367.163 13.8602 367.29C13.4926 368.109 12.8378 368.764 12.0197 369.133C11.2016 369.501 10.2768 369.557 9.42019 369.29C9.28716 369.247 9.14953 369.22 9.01019 369.21V369.21C8.61444 369.185 8.22103 369.288 7.88859 369.504C7.55614 369.72 7.30244 370.038 7.16529 370.41C7.02814 370.782 7.01489 371.188 7.12749 371.569C7.2401 371.949 7.47254 372.283 7.79018 372.52C7.90199 372.601 8.02281 372.668 8.15018 372.72C8.96869 373.088 9.62415 373.742 9.99267 374.561C10.3612 375.379 10.4172 376.303 10.1502 377.16C10.1074 377.293 10.0806 377.431 10.0702 377.57C10.0351 377.972 10.1331 378.374 10.3491 378.715C10.5651 379.056 10.8872 379.316 11.2657 379.456C11.6442 379.596 12.0581 379.608 12.4438 379.489C12.8295 379.37 13.1656 379.128 13.4002 378.8V378.8C13.4806 378.688 13.5477 378.567 13.6002 378.44C13.9678 377.622 14.6226 376.966 15.4407 376.598C16.2588 376.229 17.1836 376.173 18.0402 376.44C18.1732 376.483 18.3108 376.51 18.4502 376.52V376.52C18.8459 376.546 19.2393 376.443 19.5718 376.226C19.9042 376.01 20.1579 375.692 20.2951 375.32C20.4322 374.948 20.4455 374.542 20.3329 374.161C20.2203 373.781 19.9878 373.447 19.6702 373.21C19.5526 373.125 19.425 373.054 19.2902 373V373Z" fill="#4D8AF0"/>
<path opacity="0.5" d="M748.4 260C751.714 260 754.4 257.314 754.4 254C754.4 250.686 751.714 248 748.4 248C745.086 248 742.4 250.686 742.4 254C742.4 257.314 745.086 260 748.4 260Z" fill="#F55F44"/>
<path opacity="0.5" d="M121.4 689C124.714 689 127.4 686.314 127.4 683C127.4 679.686 124.714 677 121.4 677C118.086 677 115.4 679.686 115.4 683C115.4 686.314 118.086 689 121.4 689Z" fill="#F55F44"/>
<path opacity="0.5" d="M850.4 491C853.714 491 856.4 488.314 856.4 485C856.4 481.686 853.714 479 850.4 479C847.086 479 844.4 481.686 844.4 485C844.4 488.314 847.086 491 850.4 491Z" fill="#F55F44"/>
<path opacity="0.5" d="M704.29 77.0001C703.472 76.6324 702.816 75.9777 702.448 75.1596C702.079 74.3415 702.023 73.4167 702.29 72.5601C702.333 72.427 702.36 72.2894 702.37 72.1501V72.1501C702.396 71.7543 702.293 71.3609 702.076 71.0285C701.86 70.696 701.542 70.4423 701.17 70.3052C700.798 70.168 700.392 70.1548 700.012 70.2674C699.631 70.38 699.298 70.6124 699.06 70.9301V70.9301C698.98 71.0419 698.913 71.1627 698.86 71.2901C698.493 72.1086 697.838 72.764 697.02 73.1326C696.202 73.5011 695.277 73.5571 694.42 73.2901C694.287 73.2473 694.15 73.2205 694.01 73.2101C693.614 73.1846 693.221 73.2876 692.889 73.5038C692.556 73.72 692.302 74.0378 692.165 74.4099C692.028 74.782 692.015 75.1885 692.127 75.5687C692.24 75.949 692.473 76.2827 692.79 76.5201V76.5201C692.902 76.6005 693.023 76.6676 693.15 76.7201C693.969 77.0877 694.624 77.7425 694.993 78.5606C695.361 79.3787 695.417 80.3035 695.15 81.1601C695.107 81.2931 695.081 81.4307 695.07 81.5701V81.5701C695.035 81.9721 695.133 82.3744 695.349 82.7152C695.565 83.0561 695.887 83.3164 696.266 83.4562C696.644 83.596 697.058 83.6075 697.444 83.489C697.83 83.3704 698.166 83.1284 698.4 82.8001V82.8001C698.481 82.6883 698.548 82.5675 698.6 82.4401C698.968 81.6216 699.623 80.9661 700.441 80.5976C701.259 80.2291 702.184 80.173 703.04 80.4401C703.173 80.4828 703.311 80.5097 703.45 80.5201V80.5201C703.846 80.5456 704.239 80.4426 704.572 80.2264C704.904 80.0102 705.158 79.6923 705.295 79.3202C705.432 78.9481 705.445 78.5417 705.333 78.1614C705.22 77.7812 704.988 77.4475 704.67 77.2101V77.2101C704.553 77.1248 704.425 77.0542 704.29 77.0001V77.0001Z" fill="#4D8AF0"/>
<path opacity="0.5" d="M804.29 705C803.472 704.632 802.816 703.978 802.448 703.16C802.079 702.341 802.023 701.417 802.29 700.56C802.333 700.427 802.36 700.289 802.37 700.15V700.15C802.396 699.754 802.293 699.361 802.076 699.028C801.86 698.696 801.542 698.442 801.17 698.305C800.798 698.168 800.392 698.155 800.012 698.267C799.631 698.38 799.298 698.612 799.06 698.93V698.93C798.98 699.042 798.913 699.163 798.86 699.29C798.493 700.109 797.838 700.764 797.02 701.133C796.202 701.501 795.277 701.557 794.42 701.29C794.287 701.247 794.15 701.22 794.01 701.21V701.21C793.614 701.185 793.221 701.288 792.889 701.504C792.556 701.72 792.302 702.038 792.165 702.41C792.028 702.782 792.015 703.188 792.127 703.569C792.24 703.949 792.473 704.283 792.79 704.52V704.52C792.902 704.601 793.023 704.668 793.15 704.72C793.969 705.088 794.624 705.742 794.993 706.561C795.361 707.379 795.417 708.303 795.15 709.16C795.107 709.293 795.081 709.431 795.07 709.57V709.57C795.035 709.972 795.133 710.374 795.349 710.715C795.565 711.056 795.887 711.316 796.266 711.456C796.644 711.596 797.058 711.608 797.444 711.489C797.83 711.37 798.166 711.128 798.4 710.8V710.8C798.481 710.688 798.548 710.567 798.6 710.44C798.968 709.622 799.623 708.966 800.441 708.598C801.259 708.229 802.184 708.173 803.04 708.44C803.173 708.483 803.311 708.51 803.45 708.52V708.52C803.846 708.546 804.239 708.443 804.572 708.226C804.904 708.01 805.158 707.692 805.295 707.32C805.432 706.948 805.445 706.542 805.333 706.161C805.22 705.781 804.988 705.448 804.67 705.21V705.21C804.553 705.125 804.425 705.054 804.29 705V705Z" fill="#4D8AF0"/>
<path opacity="0.5" d="M12.2902 183C11.4717 182.632 10.8162 181.978 10.4477 181.16C10.0792 180.341 10.0232 179.417 10.2902 178.56C10.3329 178.427 10.3598 178.289 10.3702 178.15V178.15C10.3957 177.754 10.2927 177.361 10.0765 177.028C9.86027 176.696 9.54244 176.442 9.17034 176.305C8.79824 176.168 8.39179 176.155 8.01154 176.267C7.6313 176.38 7.29761 176.612 7.06019 176.93C6.97974 177.042 6.91262 177.163 6.86019 177.29C6.49255 178.109 5.83778 178.764 5.01968 179.133C4.20157 179.501 3.27681 179.557 2.42019 179.29C2.28716 179.247 2.14953 179.22 2.01019 179.21C1.61444 179.185 1.22103 179.288 0.888588 179.504C0.556142 179.72 0.302439 180.038 0.165291 180.41C0.0281424 180.782 0.014891 181.188 0.127495 181.569C0.240098 181.949 0.472537 182.283 0.790184 182.52V182.52C0.901993 182.601 1.02281 182.668 1.15018 182.72C1.96869 183.088 2.62415 183.742 2.99267 184.561C3.36118 185.379 3.41722 186.303 3.15018 187.16C3.10743 187.293 3.08057 187.431 3.07018 187.57V187.57C3.03507 187.972 3.13307 188.374 3.34908 188.715C3.5651 189.056 3.88715 189.316 4.26566 189.456C4.64417 189.596 5.05815 189.608 5.44384 189.489C5.82953 189.37 6.16556 189.128 6.40018 188.8V188.8C6.48063 188.688 6.54775 188.567 6.60018 188.44C6.96782 187.622 7.62259 186.966 8.4407 186.598C9.2588 186.229 10.1836 186.173 11.0402 186.44C11.1732 186.483 11.3108 186.51 11.4502 186.52V186.52C11.8459 186.546 12.2393 186.443 12.5718 186.226C12.9042 186.01 13.1579 185.692 13.2951 185.32C13.4322 184.948 13.4455 184.542 13.3329 184.161C13.2203 183.781 12.9878 183.447 12.6702 183.21C12.5526 183.125 12.425 183.054 12.2902 183V183Z" fill="#4D8AF0"/>
<path opacity="0.5" d="M79.3999 290C82.7136 290 85.3999 287.314 85.3999 284C85.3999 280.686 82.7136 278 79.3999 278C76.0862 278 73.3999 280.686 73.3999 284C73.3999 287.314 76.0862 290 79.3999 290Z" fill="#47E6B1"/>
<path opacity="0.5" d="M853.4 338C856.714 338 859.4 335.314 859.4 332C859.4 328.686 856.714 326 853.4 326C850.086 326 847.4 328.686 847.4 332C847.4 335.314 850.086 338 853.4 338Z" fill="#47E6B1"/>
<g opacity="0.5">
<path opacity="0.5" d="M586.4 0H583.4V17H586.4V0Z" fill="#47E6B1"/>
<path opacity="0.5" d="M593.4 10V7L576.4 7V10H593.4Z" fill="#47E6B1"/>
</g>
<g opacity="0.5">
<path opacity="0.5" d="M597.4 666H594.4V683H597.4V666Z" fill="#47E6B1"/>
<path opacity="0.5" d="M604.4 676V673H587.4V676H604.4Z" fill="#47E6B1"/>
</g>
<g opacity="0.5">
<path opacity="0.5" d="M29.3999 702H26.3999V719H29.3999V702Z" fill="#47E6B1"/>
<path opacity="0.5" d="M36.3999 712V709H19.3999V712H36.3999Z" fill="#47E6B1"/>
</g>
<g opacity="0.5">
<path opacity="0.5" d="M712.4 396H709.4V413H712.4V396Z" fill="#47E6B1"/>
<path opacity="0.5" d="M719.4 406V403H702.4V406H719.4Z" fill="#47E6B1"/>
</g>
<path opacity="0.5" d="M795.61 123.02L802.05 128.92L811.18 115.5L814.4 118.19L802.05 134.29L792.92 124.09L795.61 123.02Z" fill="#47E6B1"/>
</g>

</svg>
